<svg width="19" height="19" viewBox="0 0 19 19" fill="none" xmlns="http://www.w3.org/2000/svg">
<g clip-path="url(#clip0_10_54)">
<path d="M7.91669 10.2916C8.25667 10.7461 8.69043 11.1222 9.18854 11.3943C9.68665 11.6665 10.2375 11.8283 10.8036 11.8689C11.3698 11.9094 11.938 11.8277 12.4698 11.6293C13.0016 11.431 13.4846 11.1205 13.8859 10.7191L16.2609 8.3441C16.9819 7.59755 17.3809 6.59766 17.3719 5.5598C17.3628 4.52194 16.9465 3.52914 16.2126 2.79523C15.4787 2.06133 14.4859 1.64503 13.4481 1.63601C12.4102 1.627 11.4103 2.02597 10.6638 2.74702L9.3021 4.10077" stroke="#D77A61" stroke-width="1.58333" stroke-linecap="round" stroke-linejoin="round"/>
<path d="M11.0834 8.70835C10.7434 8.25383 10.3096 7.87775 9.81152 7.6056C9.31341 7.33346 8.76259 7.17163 8.19644 7.13108C7.63028 7.09054 7.06203 7.17222 6.53022 7.37061C5.99841 7.56899 5.51549 7.87942 5.1142 8.28085L2.7392 10.6558C2.01816 11.4024 1.61918 12.4023 1.6282 13.4401C1.63722 14.478 2.05351 15.4708 2.78742 16.2047C3.52133 16.9386 4.51413 17.3549 5.55199 17.3639C6.58985 17.373 7.58974 16.974 8.33629 16.2529L9.69004 14.8992" stroke="#D77A61" stroke-width="1.58333" stroke-linecap="round" stroke-linejoin="round"/>
</g>
<defs>
<clipPath id="clip0_10_54">
<rect width="19" height="19" fill="white"/>
</clipPath>
</defs>
</svg>
