<svg width="44" height="44" viewBox="0 0 44 44" fill="none" xmlns="http://www.w3.org/2000/svg">
<rect x="0.5" y="0.5" width="43" height="43" rx="21.5" stroke="white" stroke-opacity="0.2"/>
<path d="M29.7641 12.8333H14.2358C14.0613 12.8309 13.8879 12.8629 13.7257 12.9274C13.5636 12.992 13.4157 13.0879 13.2905 13.2096C13.1654 13.3313 13.0655 13.4765 12.9965 13.6369C12.9274 13.7972 12.8907 13.9696 12.8883 14.1442V29.8558C12.8907 30.0304 12.9274 30.2027 12.9965 30.3631C13.0655 30.5234 13.1654 30.6686 13.2905 30.7903C13.4157 30.9121 13.5636 31.008 13.7257 31.0725C13.8879 31.1371 14.0613 31.1691 14.2358 31.1667H29.7641C29.9387 31.1691 30.112 31.1371 30.2742 31.0725C30.4364 31.008 30.5843 30.9121 30.7094 30.7903C30.8345 30.6686 30.9345 30.5234 31.0035 30.3631C31.0725 30.2027 31.1092 30.0304 31.1116 29.8558V14.1442C31.1092 13.9696 31.0725 13.7972 31.0035 13.6369C30.9345 13.4765 30.8345 13.3313 30.7094 13.2096C30.5843 13.0879 30.4364 12.992 30.2742 12.9274C30.112 12.8629 29.9387 12.8309 29.7641 12.8333ZM18.4158 28.1783H15.6658V19.9283H18.4158V28.1783ZM17.0408 18.7733C16.6615 18.7733 16.2978 18.6227 16.0296 18.3545C15.7615 18.0863 15.6108 17.7226 15.6108 17.3433C15.6108 16.9641 15.7615 16.6003 16.0296 16.3322C16.2978 16.064 16.6615 15.9133 17.0408 15.9133C17.2422 15.8905 17.4461 15.9104 17.6393 15.9719C17.8324 16.0333 18.0104 16.1349 18.1616 16.2699C18.3127 16.4049 18.4337 16.5703 18.5165 16.7553C18.5993 16.9402 18.6421 17.1406 18.6421 17.3433C18.6421 17.546 18.5993 17.7464 18.5165 17.9314C18.4337 18.1164 18.3127 18.2818 18.1616 18.4168C18.0104 18.5518 17.8324 18.6533 17.6393 18.7148C17.4461 18.7762 17.2422 18.7962 17.0408 18.7733ZM28.3341 28.1783H25.5841V23.7508C25.5841 22.6417 25.19 21.9175 24.1908 21.9175C23.8816 21.9197 23.5805 22.0167 23.3281 22.1954C23.0757 22.374 22.8841 22.6258 22.7791 22.9167C22.7074 23.1321 22.6763 23.359 22.6875 23.5858V28.1692H19.9375C19.9375 28.1692 19.9375 20.6708 19.9375 19.9192H22.6875V21.0833C22.9373 20.6498 23.3006 20.2927 23.7384 20.0504C24.1761 19.8081 24.6717 19.6898 25.1716 19.7083C27.005 19.7083 28.3341 20.8908 28.3341 23.43V28.1783Z" fill="#D8B4A0"/>
</svg>
