<svg width="44" height="44" viewBox="0 0 44 44" fill="none" xmlns="http://www.w3.org/2000/svg">
<rect x="0.5" y="0.5" width="43" height="43" rx="21.5" stroke="white" stroke-opacity="0.2"/>
<path d="M33.1114 15.1565C32.2803 15.517 31.4015 15.7554 30.5022 15.8641C31.451 15.2973 32.162 14.4056 32.5033 13.3544C31.6117 13.8852 30.6357 14.2591 29.6178 14.46C28.9373 13.7221 28.0312 13.2309 27.0416 13.0635C26.0519 12.8961 25.0347 13.0619 24.1494 13.5349C23.2641 14.0079 22.5608 14.7613 22.1499 15.6771C21.739 16.5928 21.6436 17.6191 21.8788 18.5948C20.0761 18.5037 18.3127 18.0343 16.7032 17.2171C15.0938 16.4 13.6742 15.2535 12.5367 13.852C12.1378 14.5486 11.9281 15.3376 11.9287 16.1405C11.9273 16.8861 12.1102 17.6204 12.4613 18.2782C12.8124 18.9359 13.3206 19.4967 13.9408 19.9105C13.22 19.8909 12.5145 19.6974 11.8845 19.3466V19.4019C11.8899 20.4465 12.2559 21.4573 12.9207 22.2631C13.5855 23.0689 14.5083 23.6204 15.5328 23.8242C15.1384 23.9442 14.7289 24.0075 14.3167 24.0121C14.0313 24.0088 13.7467 23.9829 13.4654 23.9347C13.7572 24.8333 14.3218 25.6187 15.0807 26.1814C15.8397 26.7442 16.7551 27.0564 17.6997 27.0745C16.1046 28.3297 14.1353 29.0147 12.1056 29.0203C11.736 29.0216 11.3668 28.9994 11 28.954C13.0723 30.292 15.4873 31.0023 17.954 30.9993C19.6563 31.017 21.3449 30.6953 22.9215 30.053C24.498 29.4108 25.9307 28.4608 27.136 27.2586C28.3413 26.0564 29.2949 24.6261 29.9412 23.0513C30.5875 21.4764 30.9135 19.7885 30.9002 18.0863C30.9002 17.8983 30.9002 17.6993 30.9002 17.5003C31.7678 16.8534 32.516 16.0602 33.1114 15.1565Z" fill="#D8B4A0"/>
</svg>
